<?xml version="1.0" encoding="UTF-8"?>
<svg width="600" height="337" viewBox="0 0 600 337" fill="none" xmlns="http://www.w3.org/2000/svg">
  <rect width="600" height="337" fill="#1E3A8A"/>
  
  <!-- Dashboard background -->
  <rect x="50" y="60" width="500" height="210" rx="6" fill="#1E293B"/>
  
  <!-- Header -->
  <rect x="50" y="60" width="500" height="40" rx="6 6 0 0" fill="#0F172A"/>
  <circle cx="80" cy="80" r="10" fill="#3B82F6"/>
  <rect x="100" y="75" width="80" height="10" rx="2" fill="#E2E8F0"/>
  <circle cx="530" cy="80" r="10" fill="#6366F1"/>
  
  <!-- Sidebar -->
  <rect x="50" y="100" width="120" height="170" fill="#0F172A"/>
  <rect x="70" y="120" width="80" height="8" rx="2" fill="#E2E8F0"/>
  <rect x="70" y="140" width="80" height="8" rx="2" fill="#94A3B8"/>
  <rect x="70" y="160" width="80" height="8" rx="2" fill="#94A3B8"/>
  <rect x="70" y="180" width="80" height="8" rx="2" fill="#94A3B8"/>
  <rect x="70" y="200" width="80" height="8" rx="2" fill="#94A3B8"/>
  <rect x="70" y="220" width="80" height="8" rx="2" fill="#94A3B8"/>
  
  <!-- Content area - Analytics -->
  <rect x="190" y="110" width="340" height="70" rx="4" fill="#0F172A"/>
  <rect x="210" y="125" width="80" height="40" rx="2" fill="#3B82F6" fill-opacity="0.2"/>
  <rect x="220" y="135" width="60" height="4" rx="1" fill="#3B82F6"/>
  <rect x="220" y="145" width="40" height="4" rx="1" fill="#3B82F6"/>
  <rect x="220" y="155" width="30" height="4" rx="1" fill="#3B82F6"/>
  
  <rect x="320" y="125" width="80" height="40" rx="2" fill="#EF4444" fill-opacity="0.2"/>
  <rect x="330" y="135" width="60" height="4" rx="1" fill="#EF4444"/>
  <rect x="330" y="145" width="40" height="4" rx="1" fill="#EF4444"/>
  <rect x="330" y="155" width="60" height="4" rx="1" fill="#EF4444"/>
  
  <rect x="430" y="125" width="80" height="40" rx="2" fill="#10B981" fill-opacity="0.2"/>
  <rect x="440" y="135" width="60" height="4" rx="1" fill="#10B981"/>
  <rect x="440" y="145" width="30" height="4" rx="1" fill="#10B981"/>
  <rect x="440" y="155" width="50" height="4" rx="1" fill="#10B981"/>
  
  <!-- Content area - Posts -->
  <rect x="190" y="190" width="340" height="80" rx="4" fill="#0F172A"/>
  
  <!-- Post item 1 -->
  <rect x="210" y="205" width="300" height="20" rx="2" fill="#1E293B"/>
  <circle cx="220" cy="215" r="6" fill="#3B82F6"/>
  <rect x="235" y="211" width="120" height="4" rx="1" fill="#E2E8F0"/>
  <rect x="235" y="219" width="80" height="3" rx="1" fill="#94A3B8"/>
  <rect x="470" y="211" width="20" height="8" rx="4" fill="#10B981"/>
  
  <!-- Post item 2 -->
  <rect x="210" y="235" width="300" height="20" rx="2" fill="#1E293B"/>
  <circle cx="220" cy="245" r="6" fill="#EF4444"/>
  <rect x="235" y="241" width="100" height="4" rx="1" fill="#E2E8F0"/>
  <rect x="235" y="249" width="60" height="3" rx="1" fill="#94A3B8"/>
  <rect x="470" y="241" width="20" height="8" rx="4" fill="#3B82F6"/>
  
  <text x="300" y="300" font-family="monospace" font-size="24" text-anchor="middle" fill="white">Social Media Manager</text>
</svg>