<?xml version="1.0" encoding="UTF-8"?>
<svg width="600" height="337" viewBox="0 0 600 337" fill="none" xmlns="http://www.w3.org/2000/svg">
  <rect width="600" height="337" fill="#163020"/>
  <rect x="75" y="70" width="450" height="160" rx="5" fill="#224B0C"/>
  <rect x="100" y="90" width="160" height="120" rx="4" fill="#FFFFFF" fill-opacity="0.1"/>
  <rect x="280" y="90" width="220" height="35" rx="4" fill="#FFFFFF" fill-opacity="0.15"/>
  <rect x="280" y="135" width="220" height="75" rx="4" fill="#FFFFFF" fill-opacity="0.1"/>
  
  <!-- Fruits -->
  <circle cx="140" cy="120" r="20" fill="#FF5733"/>
  <circle cx="180" cy="150" r="18" fill="#C70039"/>
  <circle cx="130" cy="170" r="16" fill="#FF8D1A"/>
  <circle cx="200" cy="115" r="15" fill="#44BD32"/>
  
  <!-- Text lines -->
  <rect x="290" y="105" width="150" height="8" rx="2" fill="#FFFFFF" fill-opacity="0.8"/>
  <rect x="290" y="150" width="190" height="6" rx="2" fill="#FFFFFF" fill-opacity="0.6"/>
  <rect x="290" y="165" width="160" height="6" rx="2" fill="#FFFFFF" fill-opacity="0.6"/>
  <rect x="290" y="180" width="120" height="6" rx="2" fill="#FFFFFF" fill-opacity="0.6"/>
  <rect x="290" y="195" width="100" height="6" rx="2" fill="#FFFFFF" fill-opacity="0.6"/>
  
  <!-- Bottom buttons -->
  <rect x="145" y="245" width="120" height="30" rx="15" fill="#44BD32"/>
  <rect x="280" y="245" width="120" height="30" rx="15" fill="#FFFFFF" fill-opacity="0.2"/>
  
  <text x="300" y="290" font-family="monospace" font-size="24" text-anchor="middle" fill="white">Green Market</text>
</svg>